<?xml version="1.0" encoding="utf-8"?>
<!-- Generator: Adobe Illustrator 28.1.0, SVG Export Plug-In . SVG Version: 6.00 Build 0)  -->
<svg version="1.1" id="Layer_1" xmlns="http://www.w3.org/2000/svg" xmlns:xlink="http://www.w3.org/1999/xlink" x="0px" y="0px"
	 viewBox="0 0 226.6 63" style="enable-background:new 0 0 226.6 63;" xml:space="preserve">
<style type="text/css">
	.st0{fill:url(#SVGID_1_);}
	.st1{fill:url(#SVGID_00000058560429973137360470000015678271473092378784_);}
	.st2{fill:url(#SVGID_00000096043189814083916640000003657082851862053567_);}
	.st3{fill:url(#SVGID_00000120553472760778524410000002867704435416687760_);}
	.st4{enable-background:new    ;}
	.st5{fill:#313133;}
</style>
<g transform="translate(-200 -61)">
	
		<linearGradient id="SVGID_1_" gradientUnits="userSpaceOnUse" x1="-308.7386" y1="597.7656" x2="-309.3556" y2="596.7786" gradientTransform="matrix(31.97 0 0 -58.217 10096.2158 34863.7109)">
		<stop  offset="0" style="stop-color:#004A9B"/>
		<stop  offset="3.000000e-02" style="stop-color:#02519F"/>
		<stop  offset="0.199" style="stop-color:#1076B3"/>
		<stop  offset="0.367" style="stop-color:#1B93C2"/>
		<stop  offset="0.534" style="stop-color:#23A8CE"/>
		<stop  offset="0.698" style="stop-color:#28B4D4"/>
		<stop  offset="0.856" style="stop-color:#2AB9D7"/>
	</linearGradient>
	<path class="st0" d="M212.8,121.4H200l19.2-58.2H232L212.8,121.4z"/>
	
		<linearGradient id="SVGID_00000009555077987726667600000011090781131181438108_" gradientUnits="userSpaceOnUse" x1="-309.3555" y1="597.7776" x2="-308.7405" y2="596.7747" gradientTransform="matrix(31.967 0 0 -58.217 10114.3691 34863.7109)">
		<stop  offset="0" style="stop-color:#2AB9D7"/>
		<stop  offset="8.600000e-02" style="stop-color:#2AB9D7"/>
		<stop  offset="0.209" style="stop-color:#28B4D4"/>
		<stop  offset="0.324" style="stop-color:#23A8CE"/>
		<stop  offset="0.423" style="stop-color:#1B93C2"/>
		<stop  offset="0.631" style="stop-color:#1076B3"/>
		<stop  offset="0.858" style="stop-color:#02519F"/>
		<stop  offset="1" style="stop-color:#004A9B"/>
	</linearGradient>
	<path style="fill:url(#SVGID_00000009555077987726667600000011090781131181438108_);" d="M238.3,121.4h12.8l-19.2-58.2h-12.8
		L238.3,121.4z"/>
	
		<linearGradient id="SVGID_00000006668468417613335300000001606534408120787617_" gradientUnits="userSpaceOnUse" x1="-292.1832" y1="588.4095" x2="-293.8082" y2="587.9605" gradientTransform="matrix(16.071 0 0 -27.673 4951.6846 16360.7305)">
		<stop  offset="0.329" style="stop-color:#E82817"/>
		<stop  offset="0.408" style="stop-color:#EE4910"/>
		<stop  offset="0.495" style="stop-color:#F4660A"/>
		<stop  offset="0.588" style="stop-color:#F87D05"/>
		<stop  offset="0.688" style="stop-color:#FB8D02"/>
		<stop  offset="0.8" style="stop-color:#FD9700"/>
		<stop  offset="0.951" style="stop-color:#FE9A00"/>
	</linearGradient>
	<path style="fill:url(#SVGID_00000006668468417613335300000001606534408120787617_);" d="M245,97.6l-6.4-19l3.1-8.7l13,0.1
		L245,97.6z"/>
	
		<linearGradient id="SVGID_00000072999337520326237350000009182457461701197445_" gradientUnits="userSpaceOnUse" x1="-308.0595" y1="596.7613" x2="-307.4525" y2="595.7013" gradientTransform="matrix(29.618 0 0 -51.529 9371.2715 30817.4707)">
		<stop  offset="4.900000e-02" style="stop-color:#FE9A00"/>
		<stop  offset="0.246" style="stop-color:#FD9700"/>
		<stop  offset="0.392" style="stop-color:#FB8D02"/>
		<stop  offset="0.523" style="stop-color:#F87D05"/>
		<stop  offset="0.644" style="stop-color:#F4660A"/>
		<stop  offset="0.757" style="stop-color:#EE4910"/>
		<stop  offset="0.86" style="stop-color:#E82817"/>
	</linearGradient>
	<path style="fill:url(#SVGID_00000072999337520326237350000009182457461701197445_);" d="M258.8,121.4h12.6l-17-51.5h-12.6
		L258.8,121.4z"/>
	<g class="st4">
		<path class="st5" d="M305.1,96h-6l-2.4-6.2h-10.9l-2.2,6.2h-5.8l10.6-27.2h5.8L305.1,96z M295,85.2l-3.7-10.1l-3.7,10.1H295z"/>
		<path class="st5" d="M305.8,68.8h10c2.3,0,4,0.2,5.2,0.5c1.6,0.5,3,1.3,4.1,2.5c1.1,1.2,2,2.7,2.6,4.4c0.6,1.7,0.9,3.9,0.9,6.4
			c0,2.2-0.3,4.2-0.8,5.8c-0.7,2-1.7,3.6-2.9,4.8c-1,0.9-2.2,1.7-3.9,2.2c-1.2,0.4-2.8,0.6-4.9,0.6h-10.3V68.8z M311.2,73.4v18h4.1
			c1.5,0,2.6-0.1,3.3-0.3c0.9-0.2,1.6-0.6,2.2-1.1c0.6-0.5,1.1-1.4,1.4-2.6c0.4-1.2,0.6-2.9,0.6-5c0-2.1-0.2-3.7-0.6-4.8
			c-0.4-1.1-0.9-2-1.6-2.6s-1.5-1.1-2.5-1.3c-0.8-0.2-2.3-0.3-4.5-0.3H311.2z"/>
		<path class="st5" d="M331,96V68.8h5.5v10.7h10.8V68.8h5.5V96h-5.5V84.1h-10.8V96H331z"/>
		<path class="st5" d="M355.9,96V68.8h5.5V96H355.9z"/>
		<path class="st5" d="M364.4,96V68.8H376c2.9,0,5,0.2,6.3,0.7c1.3,0.5,2.4,1.4,3.2,2.6c0.8,1.2,1.2,2.7,1.2,4.3
			c0,2-0.6,3.7-1.8,5.1c-1.2,1.3-3,2.2-5.4,2.5c1.2,0.7,2.2,1.5,2.9,2.3c0.8,0.8,1.8,2.3,3.1,4.4l3.3,5.3h-6.6l-4-5.9
			c-1.4-2.1-2.4-3.4-2.9-4c-0.5-0.5-1.1-0.9-1.7-1.1c-0.6-0.2-1.5-0.3-2.8-0.3h-1.1V96H364.4z M369.9,80.3h4.1
			c2.6,0,4.3-0.1,4.9-0.3s1.2-0.6,1.5-1.2c0.4-0.5,0.6-1.2,0.6-2c0-0.9-0.2-1.7-0.7-2.2c-0.5-0.6-1.2-0.9-2.1-1.1
			c-0.4-0.1-1.8-0.1-4-0.1h-4.3V80.3z"/>
		<path class="st5" d="M414.1,96h-6l-2.4-6.2h-10.9l-2.2,6.2h-5.8l10.6-27.2h5.8L414.1,96z M404,85.2l-3.7-10.1l-3.7,10.1H404z"/>
	</g>
	<g class="st4">
		<path class="st5" d="M294.4,120h-3.8l-1.5-3.9h-6.9l-1.4,3.9h-3.7l6.7-17.2h3.7L294.4,120z M288,113.2l-2.4-6.4l-2.3,6.4H288z"/>
		<path class="st5" d="M293.9,114.5l3.4-0.3c0.2,1.1,0.6,2,1.2,2.5s1.5,0.8,2.5,0.8c1.1,0,2-0.2,2.5-0.7s0.8-1,0.8-1.7
			c0-0.4-0.1-0.8-0.4-1s-0.7-0.5-1.2-0.7c-0.4-0.1-1.3-0.4-2.8-0.8c-1.9-0.5-3.2-1-3.9-1.7c-1.1-0.9-1.6-2.1-1.6-3.5
			c0-0.9,0.2-1.7,0.7-2.5s1.2-1.3,2.1-1.7s2.1-0.6,3.4-0.6c2.2,0,3.8,0.5,4.9,1.4s1.7,2.2,1.7,3.8l-3.5,0.2c-0.1-0.9-0.5-1.5-1-1.9
			s-1.2-0.6-2.2-0.6c-1,0-1.8,0.2-2.4,0.6c-0.4,0.3-0.6,0.6-0.6,1.1c0,0.4,0.2,0.8,0.5,1c0.4,0.4,1.5,0.8,3.2,1.1s2.9,0.8,3.7,1.2
			s1.4,1,1.9,1.7s0.7,1.7,0.7,2.7c0,1-0.3,1.9-0.8,2.8s-1.3,1.5-2.3,1.9s-2.2,0.6-3.7,0.6c-2.2,0-3.8-0.5-5-1.5
			S294.2,116.4,293.9,114.5z"/>
		<path class="st5" d="M308.5,114.5l3.4-0.3c0.2,1.1,0.6,2,1.2,2.5s1.5,0.8,2.5,0.8c1.1,0,2-0.2,2.5-0.7s0.8-1,0.8-1.7
			c0-0.4-0.1-0.8-0.4-1s-0.7-0.5-1.2-0.7c-0.4-0.1-1.3-0.4-2.8-0.8c-1.9-0.5-3.2-1-3.9-1.7c-1.1-0.9-1.6-2.1-1.6-3.5
			c0-0.9,0.2-1.7,0.7-2.5s1.2-1.3,2.1-1.7s2.1-0.6,3.4-0.6c2.2,0,3.8,0.5,4.9,1.4s1.7,2.2,1.7,3.8l-3.5,0.2c-0.1-0.9-0.5-1.5-1-1.9
			s-1.2-0.6-2.2-0.6c-1,0-1.8,0.2-2.4,0.6c-0.4,0.3-0.6,0.6-0.6,1.1c0,0.4,0.2,0.8,0.5,1c0.4,0.4,1.5,0.8,3.2,1.1s2.9,0.8,3.7,1.2
			s1.4,1,1.9,1.7s0.7,1.7,0.7,2.7c0,1-0.3,1.9-0.8,2.8s-1.3,1.5-2.3,1.9s-2.2,0.6-3.7,0.6c-2.2,0-3.8-0.5-5-1.5
			S308.8,116.4,308.5,114.5z"/>
		<path class="st5" d="M323.3,111.6c0-1.8,0.3-3.2,0.8-4.4c0.4-0.9,0.9-1.7,1.6-2.4s1.4-1.2,2.2-1.5c1.1-0.5,2.3-0.7,3.7-0.7
			c2.5,0,4.6,0.8,6.1,2.4s2.3,3.8,2.3,6.6c0,2.8-0.8,4.9-2.3,6.5s-3.5,2.3-6,2.3c-2.6,0-4.6-0.8-6.1-2.3S323.3,114.3,323.3,111.6z
			 M326.9,111.4c0,1.9,0.4,3.4,1.3,4.4s2,1.5,3.4,1.5s2.5-0.5,3.4-1.5s1.3-2.5,1.3-4.5c0-2-0.4-3.4-1.3-4.4s-2-1.5-3.4-1.5
			s-2.6,0.5-3.5,1.5S326.9,109.5,326.9,111.4z"/>
		<path class="st5" d="M352.3,113.7l3.4,1.1c-0.5,1.9-1.4,3.3-2.6,4.2s-2.7,1.4-4.6,1.4c-2.3,0-4.2-0.8-5.6-2.3s-2.2-3.7-2.2-6.4
			c0-2.9,0.7-5.1,2.2-6.7s3.4-2.4,5.8-2.4c2.1,0,3.8,0.6,5.1,1.9c0.8,0.7,1.4,1.8,1.8,3.2l-3.4,0.8c-0.2-0.9-0.6-1.6-1.3-2.1
			s-1.4-0.8-2.3-0.8c-1.3,0-2.3,0.5-3.1,1.4s-1.2,2.4-1.2,4.4c0,2.2,0.4,3.7,1.2,4.6s1.8,1.4,3,1.4c0.9,0,1.7-0.3,2.4-0.9
			S352,115,352.3,113.7z"/>
		<path class="st5" d="M357.1,120v-17.2h3.5V120H357.1z"/>
		<path class="st5" d="M377.9,120h-3.8l-1.5-3.9h-6.9l-1.4,3.9h-3.7l6.7-17.2h3.7L377.9,120z M371.5,113.2l-2.4-6.4l-2.3,6.4H371.5z
			"/>
		<path class="st5" d="M380.4,120v-14.3h-5.1v-2.9H389v2.9h-5.1V120H380.4z"/>
		<path class="st5" d="M389.8,120v-17.2h12.7v2.9h-9.3v3.8h8.6v2.9h-8.6v4.7h9.6v2.9H389.8z"/>
		<path class="st5" d="M403.5,114.5l3.4-0.3c0.2,1.1,0.6,2,1.2,2.5s1.5,0.8,2.5,0.8c1.1,0,2-0.2,2.5-0.7s0.8-1,0.8-1.7
			c0-0.4-0.1-0.8-0.4-1s-0.7-0.5-1.2-0.7c-0.4-0.1-1.3-0.4-2.8-0.8c-1.9-0.5-3.2-1-3.9-1.7c-1.1-0.9-1.6-2.1-1.6-3.5
			c0-0.9,0.2-1.7,0.7-2.5s1.2-1.3,2.1-1.7s2.1-0.6,3.4-0.6c2.2,0,3.8,0.5,4.9,1.4s1.7,2.2,1.7,3.8l-3.5,0.2c-0.1-0.9-0.5-1.5-1-1.9
			s-1.2-0.6-2.2-0.6c-1,0-1.8,0.2-2.4,0.6c-0.4,0.3-0.6,0.6-0.6,1.1c0,0.4,0.2,0.8,0.5,1c0.4,0.4,1.5,0.8,3.2,1.1s2.9,0.8,3.7,1.2
			s1.4,1,1.9,1.7s0.7,1.7,0.7,2.7c0,1-0.3,1.9-0.8,2.8s-1.3,1.5-2.3,1.9s-2.2,0.6-3.7,0.6c-2.2,0-3.8-0.5-5-1.5
			S403.7,116.4,403.5,114.5z"/>
	</g>
</g>
</svg>
